<?xml version="1.0" encoding="utf-8"?>
<!-- Generator: Adobe Illustrator 18.1.1, SVG Export Plug-In . SVG Version: 6.00 Build 0)  -->
<svg version="1.1" id="Calque_1" xmlns="http://www.w3.org/2000/svg" xmlns:xlink="http://www.w3.org/1999/xlink" x="0px" y="0px"
	 viewBox="0 0 400 400" enable-background="new 0 0 400 400" xml:space="preserve">
<g>
	<path fill="#FFD550" d="M138,121.3l-21.2-21.2l-16.7,16.7l21.2,21.2L138,121.3z M105.4,188.2H70v23.6h35.5V188.2z M211.8,70.5
		h-23.6v34.9h23.6V70.5z M299.9,116.8l-16.7-16.7l-21.2,21.2l16.7,16.7L299.9,116.8z M262,278.7l21.2,21.2l16.7-16.7l-21.2-21.2
		L262,278.7z M294.6,188.2v23.6H330v-23.6H294.6z M200,129.1c-39.2,0-70.9,31.7-70.9,70.9s31.7,70.9,70.9,70.9s70.9-31.7,70.9-70.9
		S239.2,129.1,200,129.1z M188.2,329.5h23.6v-34.9h-23.6V329.5z M100.1,283.2l16.7,16.7l21.2-21.2l-16.7-16.7L100.1,283.2z"/>
</g>
</svg>
