<?xml version="1.0" encoding="utf-8"?>
<!-- Generator: Adobe Illustrator 18.1.1, SVG Export Plug-In . SVG Version: 6.00 Build 0)  -->
<svg version="1.1" id="Calque_1" xmlns="http://www.w3.org/2000/svg" xmlns:xlink="http://www.w3.org/1999/xlink" x="0px" y="0px"
	 viewBox="0 0 400 400" enable-background="new 0 0 400 400" xml:space="preserve">
<g>
	<g>
		<path fill="#FFD550" d="M104.5,100.6L92,88.1L82.1,98l12.6,12.6L104.5,100.6z M85.2,140.2h-21v14h21V140.2z M148.3,70.5h-14v20.7
			h14V70.5z M200.4,98l-9.9-9.9l-12.6,12.6l9.9,9.9L200.4,98z M178,193.8l12.6,12.6l9.9-9.9l-12.6-12.6L178,193.8z M197.3,140.2v14
			h21v-14H197.3z M141.2,105.2c-23.2,0-42,18.8-42,42s18.8,42,42,42s42-18.8,42-42S164.5,105.2,141.2,105.2z M134.2,223.9h14v-20.7
			h-14V223.9z M82.1,196.5l9.9,9.9l12.6-12.6l-9.9-9.9L82.1,196.5z"/>
	</g>
	<path fill="#BDBCBC" d="M298.8,218.9c-7.4-37.6-40.7-66-80.5-66c-31.6,0-59,17.9-72.8,44.2c-32.9,3.6-58.5,31.4-58.5,65.3
		c0,36.3,29.4,65.7,65.7,65.7h142.3c30.2,0,54.7-24.5,54.7-54.7C349.6,244.4,327.1,220.9,298.8,218.9z"/>
</g>
<path fill="#EEEEEE" d="M332.5,175.9c-3.5-17.8-19.2-31.1-38-31.1c-14.9,0-27.8,8.5-34.3,20.8c-15.5,1.7-27.6,14.8-27.6,30.8
	c0,17.1,13.9,31,31,31h67.1c14.2,0,25.8-11.6,25.8-25.8C356.5,187.9,345.9,176.8,332.5,175.9z"/>
</svg>
