<?xml version="1.0" encoding="utf-8"?>
<!-- Generator: Adobe Illustrator 18.1.1, SVG Export Plug-In . SVG Version: 6.00 Build 0)  -->
<svg version="1.1" id="Calque_1" xmlns="http://www.w3.org/2000/svg" xmlns:xlink="http://www.w3.org/1999/xlink" x="0px" y="0px"
	 viewBox="0 0 400 400" enable-background="new 0 0 400 400" xml:space="preserve">
<path fill="#BDBCBC" d="M258,136.5c-6.9-34.8-37.6-61.1-74.5-61.1c-29.3,0-54.7,16.6-67.4,40.9c-30.4,3.3-54.2,29.1-54.2,60.4
	c0,33.6,27.2,60.8,60.8,60.8h131.7c28,0,50.7-22.7,50.7-50.7C305,160,284.2,138.4,258,136.5z"/>
<path fill="#EEEEEE" d="M333.5,106.4c-5-25.3-27.4-44.5-54.2-44.5c-21.3,0-39.8,12.1-49,29.7c-22.1,2.4-39.4,21.1-39.4,44
	c0,24.4,19.8,44.2,44.2,44.2h95.8c20.3,0,36.8-16.5,36.8-36.8C367.7,123.5,352.5,107.7,333.5,106.4z"/>
<path fill="#2196F3" d="M134.3,290.8c7.1,13.2,0.1,29.8-14.4,33.4c-1.9,0.5-4,0.7-6.1,0.7s-4.1-0.3-6.1-0.7
	c-14.5-3.6-21.5-20.2-14.4-33.4l18.4-29.8c0.9-1.5,3.2-1.5,4.1,0L134.3,290.8z"/>
<path fill="#2196F3" d="M203.9,290.8c7.1,13.2,0.1,29.8-14.4,33.4c-1.9,0.5-4,0.7-6.1,0.7s-4.1-0.3-6.1-0.7
	c-14.5-3.6-21.5-20.2-14.4-33.4l18.4-29.8c0.9-1.5,3.2-1.5,4.1,0L203.9,290.8z"/>
<path fill="#2196F3" d="M273.6,290.8c7.1,13.2,0.1,29.8-14.4,33.4c-1.9,0.5-4,0.7-6.1,0.7c-2.1,0-4.1-0.3-6.1-0.7
	c-14.5-3.6-21.5-20.2-14.4-33.4l18.4-29.8c0.9-1.5,3.2-1.5,4.1,0L273.6,290.8z"/>
</svg>
