<?xml version="1.0" encoding="utf-8"?>
<!-- Generator: Adobe Illustrator 18.1.1, SVG Export Plug-In . SVG Version: 6.00 Build 0)  -->
<svg version="1.1" id="Calque_1" xmlns="http://www.w3.org/2000/svg" xmlns:xlink="http://www.w3.org/1999/xlink" x="0px" y="0px"
	 viewBox="0 0 400 400" enable-background="new 0 0 400 400" xml:space="preserve">
<g>
	<path fill="#FFD550" d="M237.5,62.4l-11.7-11.7l-9.2,9.2l11.7,11.7L237.5,62.4z M219.5,99.4h-19.6v13.1h19.6V99.4z M278.3,34.3
		h-13.1v19.3h13.1V34.3z M327,59.9l-9.2-9.2L306,62.4l9.2,9.2L327,59.9z M306.1,149.4l11.7,11.7l9.2-9.2l-11.7-11.7L306.1,149.4z
		 M324.1,99.4v13.1h19.6V99.4H324.1z M271.8,66.7c-21.7,0-39.2,17.5-39.2,39.2s17.5,39.2,39.2,39.2s39.2-17.5,39.2-39.2
		S293.5,66.7,271.8,66.7z M265.3,177.4h13.1v-19.3h-13.1V177.4z M216.6,151.9l9.2,9.2l11.7-11.7l-9.2-9.2L216.6,151.9z"/>
</g>
<path fill="#BDBCBC" d="M269.5,134.5c-6.9-34.8-37.6-61.1-74.5-61.1c-29.3,0-54.7,16.6-67.4,40.9c-30.4,3.3-54.2,29.1-54.2,60.4
	c0,33.6,27.2,60.8,60.8,60.8h131.7c28,0,50.7-22.7,50.7-50.7C316.6,158,295.8,136.4,269.5,134.5z"/>
<path fill="#2196F3" d="M145.8,288.8c7.1,13.2,0.1,29.8-14.4,33.4c-1.9,0.5-4,0.7-6.1,0.7s-4.1-0.3-6.1-0.7
	c-14.5-3.6-21.5-20.2-14.4-33.4l18.4-29.8c0.9-1.5,3.2-1.5,4.1,0L145.8,288.8z"/>
<path fill="#2196F3" d="M215.5,288.8c7.1,13.2,0.1,29.8-14.4,33.4c-1.9,0.5-4,0.7-6.1,0.7s-4.1-0.3-6.1-0.7
	c-14.5-3.6-21.5-20.2-14.4-33.4l18.4-29.8c0.9-1.5,3.2-1.5,4.1,0L215.5,288.8z"/>
<path fill="#2196F3" d="M285.1,288.8c7.1,13.2,0.1,29.8-14.4,33.4c-1.9,0.5-4,0.7-6.1,0.7c-2.1,0-4.1-0.3-6.1-0.7
	c-14.5-3.6-21.5-20.2-14.4-33.4l18.4-29.8c0.9-1.5,3.2-1.5,4.1,0L285.1,288.8z"/>
</svg>
