<?xml version="1.0" encoding="utf-8"?>
<!-- Generator: Adobe Illustrator 18.1.1, SVG Export Plug-In . SVG Version: 6.00 Build 0)  -->
<svg version="1.1" id="Calque_1" xmlns="http://www.w3.org/2000/svg" xmlns:xlink="http://www.w3.org/1999/xlink" x="0px" y="0px"
	 viewBox="0 0 400 400" enable-background="new 0 0 400 400" xml:space="preserve">
<path fill="#BDBCBC" d="M282,117.5c-6.9-34.8-37.6-61.1-74.5-61.1c-29.3,0-54.7,16.6-67.4,40.9c-30.4,3.3-54.2,29.1-54.2,60.4
	c0,33.6,27.2,60.8,60.8,60.8h131.7c28,0,50.7-22.7,50.7-50.7C329.1,141,308.2,119.3,282,117.5z"/>
<polygon fill="#FFD550" points="136.8,274 161.2,274 132.1,331.7 138.1,289 111,289 145.1,230.7 "/>
<polygon fill="#FFD550" points="208.7,274 233.1,274 204,331.7 210,289 182.9,289 217,230.7 "/>
<polygon fill="#FFD550" points="280.6,274 305,274 275.8,331.7 281.9,289 254.8,289 288.9,230.7 "/>
<path fill="#FFD550" d="M265.3,321.3"/>
</svg>
