<?xml version="1.0" encoding="utf-8"?>
<!-- Generator: Adobe Illustrator 18.1.1, SVG Export Plug-In . SVG Version: 6.00 Build 0)  -->
<svg version="1.1" id="Calque_1" xmlns="http://www.w3.org/2000/svg" xmlns:xlink="http://www.w3.org/1999/xlink" x="0px" y="0px"
	 viewBox="0 0 400 400" enable-background="new 0 0 400 400" xml:space="preserve">
<path fill="#BDBCBC" d="M275,119.8c-6.9-34.8-37.6-61.1-74.5-61.1c-29.3,0-54.7,16.6-67.4,40.9c-30.4,3.3-54.2,29.1-54.2,60.4
	c0,33.6,27.2,60.8,60.8,60.8h131.7c28,0,50.7-22.7,50.7-50.7C322.1,143.4,301.2,121.7,275,119.8z"/>
<circle fill="#BBDEFB" cx="114.5" cy="251.4" r="10.9"/>
<circle fill="#BBDEFB" cx="136.7" cy="284.8" r="9.1"/>
<circle fill="#BBDEFB" cx="179.5" cy="284.8" r="9.1"/>
<circle fill="#BBDEFB" cx="158.5" cy="316.1" r="7.9"/>
<circle fill="#BBDEFB" cx="202.1" cy="316.1" r="7.9"/>
<circle fill="#BBDEFB" cx="245.8" cy="316.1" r="7.9"/>
<circle fill="#BBDEFB" cx="222.3" cy="284.8" r="9.1"/>
<circle fill="#BBDEFB" cx="265" cy="284.8" r="9.1"/>
<circle fill="#BBDEFB" cx="158.1" cy="251.4" r="10.9"/>
<circle fill="#BBDEFB" cx="201.8" cy="251.4" r="10.9"/>
<circle fill="#BBDEFB" cx="245.4" cy="251.4" r="10.9"/>
<circle fill="#BBDEFB" cx="289.1" cy="251.4" r="10.9"/>
</svg>
